<?xml version="1.0" standalone="no"?>
<!DOCTYPE svg PUBLIC "-//W3C//DTD SVG 20010904//EN"
 "http://www.w3.org/TR/2001/REC-SVG-20010904/DTD/svg10.dtd">
<svg version="1.0" xmlns="http://www.w3.org/2000/svg"
 width="183.000000pt" height="181.000000pt" viewBox="0 0 183.000000 181.000000"
 preserveAspectRatio="xMidYMid meet">
<metadata>
Created by potrace 1.16, written by Peter Selinger 2001-2019
</metadata>
<g transform="translate(0.000000,181.000000) scale(0.100000,-0.100000)"
fill="#000000" stroke="none">
<path d="M212 1786 c-18 -7 -42 -20 -53 -29 -10 -9 -23 -17 -27 -17 -22 0 -78
-89 -101 -161 -15 -47 -16 -1305 -1 -1314 5 -3 10 -19 10 -36 0 -16 5 -29 10
-29 6 0 10 -8 10 -17 0 -9 25 -40 55 -70 91 -87 60 -84 816 -81 640 3 655 3
699 24 55 26 123 92 140 136 6 18 16 41 21 50 13 25 12 1335 -1 1343 -6 3 -10
15 -10 26 0 46 -71 129 -138 161 l-47 23 -675 1 c-505 1 -683 -1 -708 -10z
m479 -138 c13 -18 26 -35 29 -38 3 -3 19 -23 35 -45 16 -22 36 -48 45 -58 35
-43 46 -57 65 -83 30 -40 75 -87 75 -78 0 5 18 27 40 49 21 22 39 43 40 48 0
7 64 91 113 148 12 14 33 40 46 58 l24 31 154 0 c167 0 167 0 116 -55 -10 -11
-31 -38 -48 -60 -31 -42 -53 -70 -70 -89 -6 -6 -24 -29 -40 -51 -17 -22 -42
-53 -57 -69 -16 -16 -28 -33 -28 -37 0 -4 -10 -18 -22 -31 -13 -13 -36 -41
-52 -63 -17 -22 -32 -42 -35 -45 -34 -30 -34 -40 0 -86 19 -25 44 -56 57 -69
12 -13 22 -27 22 -30 0 -4 6 -12 13 -19 25 -27 57 -66 57 -72 0 -2 11 -16 25
-30 14 -14 25 -28 25 -32 0 -4 18 -26 40 -50 22 -23 40 -45 40 -50 1 -4 9 -17
19 -29 16 -20 30 -23 112 -25 93 -3 94 -3 94 -28 l0 -25 -221 -3 -222 -2 -28
33 c-53 63 -99 120 -108 136 -5 9 -14 21 -20 27 -6 6 -20 23 -31 38 -40 56
-53 66 -69 60 -9 -3 -16 -11 -16 -16 0 -6 -8 -18 -18 -27 -10 -9 -31 -34 -48
-56 -16 -22 -38 -49 -49 -60 -11 -12 -31 -38 -45 -58 -14 -20 -28 -37 -32 -37
-5 0 -8 -6 -8 -14 0 -8 -7 -17 -16 -20 -26 -10 -304 -7 -304 4 0 5 11 20 25
34 14 14 25 28 25 31 0 3 11 17 25 31 14 14 25 28 25 32 0 4 16 24 35 46 19
21 35 41 35 45 0 3 18 26 40 51 22 24 40 48 40 53 0 6 8 17 18 26 10 9 31 34
48 56 16 22 37 49 47 59 22 26 22 48 -3 66 -11 8 -20 18 -20 23 0 5 -6 14 -12
21 -20 20 -50 57 -83 101 -16 22 -35 47 -42 55 -7 8 -40 51 -75 95 -35 44 -66
82 -70 83 -5 2 -8 10 -8 17 0 16 -61 28 -128 25 -73 -4 -72 -4 -72 45 l0 45
214 0 215 0 22 -32z m1072 -1042 c15 -7 17 -25 17 -154 0 -177 -17 -244 -75
-303 -44 -45 -53 -52 -97 -72 -33 -16 -93 -17 -698 -17 -601 0 -665 2 -698 17
-43 20 -132 107 -132 128 0 8 -4 15 -10 15 -6 0 -10 72 -10 195 l0 194 148 3
c316 6 1538 1 1555 -6z"/>
<path d="M580 325 l0 -145 30 0 30 0 0 145 0 145 -30 0 -30 0 0 -145z"/>
<path d="M730 325 l0 -145 85 0 c96 0 131 13 164 59 26 36 28 118 6 162 -27
52 -68 69 -167 69 l-88 0 0 -145z m166 79 c14 -10 32 -30 40 -47 13 -24 14
-34 3 -61 -16 -37 -25 -47 -62 -64 -39 -17 -84 -15 -91 4 -8 21 -8 169 1 177
13 13 84 7 109 -9z"/>
<path d="M1090 325 l0 -146 108 3 c87 2 107 6 107 18 0 12 -17 16 -75 20 -73
5 -75 6 -78 33 -5 42 14 59 67 57 68 -3 71 -2 71 20 0 17 -8 19 -67 22 l-68 3
-3 33 -3 32 70 0 c69 0 71 1 71 25 l0 25 -100 0 -100 0 0 -145z"/>
</g>
</svg>
