<svg version="1.1" id="Capa_1" xmlns="http://www.w3.org/2000/svg" xmlns:xlink="http://www.w3.org/1999/xlink" x="0px" y="0px" width="128" height="128" viewBox="0 0 44.237 44.237" style="width: 1em; height: 1em; vertical-align: middle; fill: currentcolor; overflow: hidden; font-size: 128px;" xml:space="preserve">
<g>
	<path d="M22.119,44.237C9.922,44.237,0,34.315,0,22.119S9.922,0,22.119,0s22.119,9.922,22.119,22.119S34.315,44.237,22.119,44.237z
		 M22.119,1.5C10.75,1.5,1.5,10.75,1.5,22.119s9.25,20.619,20.619,20.619s20.619-9.25,20.619-20.619S33.488,1.5,22.119,1.5z" fill="#ffffff"></path>
	<g>
		<line x1="31.432" y1="22.455" x2="12.805" y2="22.455"></line>
		<path d="M31.432,23.205H12.805c-0.414,0-0.75-0.336-0.75-0.75s0.336-0.75,0.75-0.75h18.627c0.414,0,0.75,0.336,0.75,0.75
			S31.846,23.205,31.432,23.205z" fill="#ffffff"></path>
	</g>
	<g>
		<line x1="31.432" y1="16.419" x2="12.805" y2="16.419"></line>
		<path d="M31.432,17.169H12.805c-0.414,0-0.75-0.336-0.75-0.75s0.336-0.75,0.75-0.75h18.627c0.414,0,0.75,0.336,0.75,0.75
			S31.846,17.169,31.432,17.169z" fill="#ffffff"></path>
	</g>
	<g>
		<line x1="12.805" y1="28.503" x2="31.432" y2="28.503"></line>
		<path d="M31.432,29.253H12.805c-0.414,0-0.75-0.336-0.75-0.75s0.336-0.75,0.75-0.75h18.627c0.414,0,0.75,0.336,0.75,0.75
			S31.846,29.253,31.432,29.253z" fill="#ffffff"></path>
	</g>
</g>
<g>
</g>
<g>
</g>
<g>
</g>
<g>
</g>
<g>
</g>
<g>
</g>
<g>
</g>
<g>
</g>
<g>
</g>
<g>
</g>
<g>
</g>
<g>
</g>
<g>
</g>
<g>
</g>
<g>
</g>
</svg>