<svg fill="#000000" xmlns="http://www.w3.org/2000/svg" viewBox="0 0 100 100" width="100px" height="100px"><path d="M78.5,72.125c-0.276,0-0.5-0.224-0.5-0.5v-5.75c0-0.276,0.224-0.5,0.5-0.5s0.5,0.224,0.5,0.5v5.75 C79,71.901,78.776,72.125,78.5,72.125z M78.5,63.375c-0.276,0-0.5-0.224-0.5-0.5v-1c0-0.276,0.224-0.5,0.5-0.5s0.5,0.224,0.5,0.5v1 C79,63.151,78.776,63.375,78.5,63.375z M78.5,60.375c-0.276,0-0.5-0.224-0.5-0.5v-4c0-0.276,0.224-0.5,0.5-0.5s0.5,0.224,0.5,0.5v4 C79,60.151,78.776,60.375,78.5,60.375z M78.5,53.375c-0.276,0-0.5-0.224-0.5-0.5v-25c0-0.276,0.224-0.5,0.5-0.5s0.5,0.224,0.5,0.5 v25C79,53.151,78.776,53.375,78.5,53.375z"/><path d="M80.025,22.598l-14.361-6.594c-0.551-0.384-1.207-0.6-1.861-0.6c-0.892,0-1.715,0.367-2.326,1.036L37.859,38.03 c-0.409,0.371-0.44,1.004-0.069,1.413c0.197,0.218,0.469,0.328,0.741,0.328c0.24,0,0.48-0.086,0.672-0.259l23.66-21.63 c0.026-0.024,0.052-0.05,0.075-0.076c0.294-0.334,0.633-0.403,0.865-0.403c0.588,0,1.196,0.441,1.196,1.182v15.667L49.675,45.835 l0.007,0.006l-0.842,0.637c-0.44,0.333-0.527,0.96-0.194,1.401c0.197,0.26,0.496,0.396,0.799,0.396c0.21,0,0.422-0.065,0.603-0.202 L65,36.76l0.003,26.143L24.701,32.441c-1.495-1.095-3.661-1.053-5.247,0.079c-0.831,0.594-2.89,2.503-3.065,2.67 c-0.991,0.794-1.586,1.977-1.63,3.246c-0.045,1.27,0.465,2.49,1.401,3.354l45.317,41.431c0.611,0.669,1.435,1.036,2.326,1.036 c0.654,0,1.31-0.217,1.862-0.601l14.269-6.557C82.366,76.26,84,73.981,84,71.429V28.231C84,25.679,82.366,23.4,80.025,22.598z M62.863,81.777L17.513,40.316c-0.504-0.465-0.779-1.124-0.756-1.81c0.024-0.687,0.346-1.325,0.938-1.803 c0.604-0.563,2.306-2.117,2.921-2.556c0.474-0.339,1.032-0.524,1.573-0.524c0.484,0,0.945,0.148,1.318,0.422L65,65.408v15.667 c0,0.74-0.608,1.182-1.196,1.182c-0.232,0-0.571-0.069-0.865-0.403C62.915,81.827,62.89,81.802,62.863,81.777z M82,71.429 c0,1.699-1.092,3.219-2.809,3.815L67,80.843V64.91l-0.003-30.148c0-0.004,0.003-0.008,0.003-0.012V18.816l12.282,5.636 C80.908,25.013,82,26.532,82,28.231V71.429z"/><path d="M31.595,59.515l-8.075,6.091c-0.815,0.597-2.006,0.547-2.903-0.093c-0.615-0.439-2.317-1.994-2.978-2.604 c-0.536-0.43-0.857-1.069-0.882-1.756c-0.023-0.686,0.252-1.345,0.753-1.807l6.479-5.904c0.407-0.372,0.437-1.005,0.063-1.412 c-0.373-0.41-1.005-0.438-1.413-0.064l-1.078,0.985l-0.01-0.008l-5.393,4.931c-0.933,0.86-1.443,2.081-1.398,3.35 c0.044,1.27,0.638,2.453,1.574,3.199c0.231,0.216,2.29,2.124,3.121,2.719c0.811,0.577,1.781,0.896,2.735,0.896 c0.913,0,1.781-0.282,2.523-0.826l8.089-6.1c0.44-0.333,0.527-0.961,0.194-1.401C32.661,59.269,32.035,59.181,31.595,59.515z"/></svg>